<svg xmlns:cc="http://creativecommons.org/ns#" xmlns:rdf="http://www.w3.org/1999/02/22-rdf-syntax-ns#"
     xmlns="http://www.w3.org/2000/svg" version="1.1" width="307.75006103515625" height="116.37504577636719">
    <defs>
        <style type="text/css">svg {
            background-color: #fff; }

            .root text,
            .root tspan {
            font: 12px Arial; }

            .root path {
            fill-opacity: 0;
            stroke-width: 2px;
            stroke: #000; }

            .root circle {
            fill: #6b6659;
            stroke-width: 2px;
            stroke: #000; }

            .anchor text, .any-character text {
            fill: #fff; }

            .anchor rect, .any-character rect {
            fill: #6b6659; }

            .escape text, .charset-escape text, .literal text {
            fill: #000; }

            .escape rect, .charset-escape rect {
            fill: #bada55; }

            .literal rect {
            fill: #dae9e5; }

            .charset .charset-box {
            fill: #cbcbba; }

            .subexp .subexp-label tspan,
            .charset .charset-label tspan,
            .match-fragment .repeat-label tspan {
            font-size: 10px; }

            .repeat-label {
            cursor: help; }

            .subexp .subexp-label tspan,
            .charset .charset-label tspan {
            dominant-baseline: text-after-edge; }

            .subexp .subexp-box {
            stroke: #908c83;
            stroke-dasharray: 6,2;
            stroke-width: 2px;
            fill-opacity: 0; }

            .quote {
            fill: #908c83; }
        </style>
    </defs>
    <metadata>
        <rdf:rdf>
            <cc:license rdf:about="http://creativecommons.org/licenses/by/3.0/">
                <cc:permits rdf:resource="http://creativecommons.org/ns#Reproduction"></cc:permits>
                <cc:permits rdf:resource="http://creativecommons.org/ns#Distribution"></cc:permits>
                <cc:requires rdf:resource="http://creativecommons.org/ns#Notice"></cc:requires>
                <cc:requires rdf:resource="http://creativecommons.org/ns#Attribution"></cc:requires>
                <cc:permits rdf:resource="http://creativecommons.org/ns#DerivativeWorks"></cc:permits>
            </cc:license>
        </rdf:rdf>
    </metadata>
    <desc>Created with Snap</desc>
    <g transform="matrix(1,0,0,1,15,10)" class="root">
        <g transform="matrix(1,0,0,1,10,0)" class="regexp match">
            <path d="M70.703125,42.187574999999995H90.7031M166.031225,42.18757479553223H191.0313"></path>
            <g transform="matrix(1,0,0,1,0,30.5157)" class="match-fragment">
                <g class="label anchor">
                    <rect width="70.703125" height="23.34375"></rect>
                    <text x="0" y="0" transform="matrix(1,0,0,1,5,16.6719)">
                        <tspan>Start of line</tspan>
                    </text>
                </g>
            </g>
            <g transform="matrix(1,0,0,1,80.7031,0)" class="match-fragment">
                <path d="M10,42.18757479553223q-10,0 -10,10v20.843770571899412q0,10 10,10h75.328125q10,0 10,-10v-20.843770571899412q0,-10 -10,-10M95.328125,57.18757479553223l5,-5m-5,5l-5,-5"></path>
                <g transform="matrix(1,0,0,1,10,0)" class="charset">
                    <rect rx="3" ry="3" class="charset-box" transform="matrix(1,0,0,1,0,11.3438)" width="75.328125"
                          height="61.68754959106445"></rect>
                    <text x="0" y="0" transform="matrix(1,0,0,1,0,11.3438)" class="charset-label">
                        <tspan>One of:</tspan>
                    </text>
                    <g transform="matrix(1,0,0,1,5,16.3438)">
                        <g transform="matrix(1,0,0,1,0,0)" class="charset-range">
                            <text x="0" y="0" transform="matrix(1,0,0,1,31,15.6719)">-</text>
                            <g transform="matrix(1,0,0,1,0,0)" class="literal">
                                <g class="label">
                                    <rect width="26" height="23.34375" rx="3" ry="3"></rect>
                                    <text x="0" y="0" transform="matrix(1,0,0,1,5,16.6719)">
                                        <tspan class="quote">“</tspan>
                                        <tspan>A</tspan>
                                        <tspan class="quote">”</tspan>
                                    </text>
                                </g>
                            </g>
                            <g transform="matrix(1,0,0,1,40,0)" class="literal">
                                <g class="label">
                                    <rect width="25.328125" height="23.34375" rx="3" ry="3"></rect>
                                    <text x="0" y="0" transform="matrix(1,0,0,1,5,16.6719)">
                                        <tspan class="quote">“</tspan>
                                        <tspan>Z</tspan>
                                        <tspan class="quote">”</tspan>
                                    </text>
                                </g>
                            </g>
                        </g>
                        <g transform="matrix(1,0,0,1,1.3281,28.3438)" class="charset-range">
                            <text x="0" y="0" transform="matrix(1,0,0,1,29.6719,15.6719)">-</text>
                            <g transform="matrix(1,0,0,1,0,0)" class="literal">
                                <g class="label">
                                    <rect width="24.671875" height="23.34375" rx="3" ry="3"></rect>
                                    <text x="0" y="0" transform="matrix(1,0,0,1,5,16.6719)">
                                        <tspan class="quote">“</tspan>
                                        <tspan>a</tspan>
                                        <tspan class="quote">”</tspan>
                                    </text>
                                </g>
                            </g>
                            <g transform="matrix(1,0,0,1,38.6719,0)" class="literal">
                                <g class="label">
                                    <rect width="24" height="23.34375" rx="3" ry="3"></rect>
                                    <text x="0" y="0" transform="matrix(1,0,0,1,5,16.6719)">
                                        <tspan class="quote">“</tspan>
                                        <tspan>z</tspan>
                                        <tspan class="quote">”</tspan>
                                    </text>
                                </g>
                            </g>
                        </g>
                    </g>
                </g>
                <text x="0" y="0" transform="matrix(1,0,0,1,46.625,94.3751)" class="repeat-label">
                    <tspan>1…34 times</tspan>
                    <title>
                        <text x="0" y="0">repeats 2…35 times in total</text>
                    </title>
                </text>
            </g>
            <g transform="matrix(1,0,0,1,191.0313,30.5157)" class="match-fragment">
                <g class="label anchor">
                    <rect width="66.71875" height="23.34375"></rect>
                    <text x="0" y="0" transform="matrix(1,0,0,1,5,16.6719)">
                        <tspan>End of line</tspan>
                    </text>
                </g>
            </g>
        </g>
        <path d="M10,42.187574999999995H0M267.75005,42.187574999999995H277.75006103515625"></path>
        <circle cx="0" cy="42.187574999999995" r="5"></circle>
        <circle cx="277.75006103515625" cy="42.187574999999995" r="5"></circle>
    </g>
</svg>
          